<?xml version="1.0" standalone="no"?>
<!DOCTYPE svg PUBLIC "-//W3C//DTD SVG 20010904//EN"
 "http://www.w3.org/TR/2001/REC-SVG-20010904/DTD/svg10.dtd">
<svg version="1.0" xmlns="http://www.w3.org/2000/svg"
 width="1200.000000pt" height="1200.000000pt" viewBox="0 0 1200.000000 1200.000000"
 preserveAspectRatio="xMidYMid meet">
<metadata>
Created by potrace 1.14, written by Peter Selinger 2001-2017
</metadata>
<g transform="translate(0.000000,1200.000000) scale(0.100000,-0.100000)"
fill="#000000" stroke="none">
<path d="M2050 10924 l0 -454 450 0 c248 0 450 2 450 4 0 2 -202 207 -450 454
l-450 451 0 -455z"/>
<path d="M9517 10925 l-447 -450 446 -3 c246 -1 449 0 452 3 6 6 7 894 1 898
-2 1 -205 -200 -452 -448z"/>
<path d="M2050 8073 l0 -2002 40 -11 c22 -5 59 -15 82 -21 24 -6 50 -13 58
-14 8 -2 161 -40 340 -85 179 -45 335 -84 348 -86 61 -12 221 -77 278 -115
178 -116 313 -315 350 -519 10 -54 12 -217 3 -264 -4 -22 -10 -63 -14 -91 -4
-27 -9 -59 -10 -70 -2 -11 -6 -38 -10 -60 -27 -179 -39 -255 -55 -355 -11 -63
-22 -135 -25 -160 -3 -25 -13 -85 -20 -135 -8 -49 -17 -108 -20 -130 -3 -22
-10 -65 -15 -95 -9 -53 -14 -86 -25 -167 -3 -21 -10 -60 -15 -88 -5 -27 -16
-100 -25 -161 -9 -60 -17 -121 -20 -135 -18 -111 -35 -213 -41 -259 -4 -30 -8
-57 -9 -60 -1 -3 -5 -30 -9 -60 -5 -30 -10 -64 -12 -75 -4 -22 -62 -399 -70
-455 -3 -19 -7 -46 -9 -60 -3 -14 -7 -43 -10 -65 -4 -22 -10 -65 -15 -95 -5
-30 -12 -71 -15 -90 -3 -19 -19 -123 -35 -230 -17 -107 -33 -211 -36 -230 -8
-55 -14 -91 -24 -150 -5 -30 -12 -75 -15 -100 -3 -25 -8 -56 -10 -70 -3 -14
-7 -41 -10 -60 -3 -19 -9 -62 -15 -95 -9 -54 -40 -257 -55 -359 -3 -21 -7 -48
-10 -60 -2 -12 -7 -38 -10 -58 -3 -21 -8 -54 -11 -73 -4 -25 -1 -35 8 -35 22
-1 302 -2 329 -1 l27 1 0 334 c0 306 2 341 21 409 57 210 217 367 431 423 58
16 132 18 735 18 718 0 721 0 835 -52 146 -66 265 -191 315 -332 36 -98 39
-135 39 -487 1 -201 5 -313 11 -314 71 -3 766 1 773 5 6 3 10 133 10 319 0
172 3 333 7 358 34 223 185 398 410 475 l80 27 665 0 c366 1 690 -3 720 -7 52
-7 82 -17 155 -52 140 -66 257 -196 304 -337 31 -91 35 -151 35 -484 l1 -303
72 -1 c91 -1 125 -1 213 0 l70 1 -4 42 c-3 24 -7 57 -10 73 -5 27 -46 299 -61
400 -3 22 -12 81 -20 130 -8 50 -17 110 -20 135 -3 25 -8 52 -10 60 -2 8 -7
35 -10 60 -3 25 -11 74 -16 110 -6 36 -12 80 -15 99 -2 19 -6 46 -9 60 -2 14
-16 103 -30 196 -14 94 -30 195 -35 225 -5 30 -12 71 -14 90 -5 37 -34 228
-41 270 -6 34 -23 147 -30 190 -2 19 -30 199 -60 400 -31 201 -58 381 -61 400
-3 19 -7 46 -9 60 -3 14 -7 43 -11 65 -6 45 -33 217 -39 255 -2 14 -9 57 -15
95 -5 39 -12 79 -14 91 -2 12 -7 45 -11 75 -3 30 -8 61 -10 69 -2 8 -7 35 -10
60 -3 25 -8 56 -10 70 -25 155 -40 259 -66 430 -11 74 -23 151 -26 170 -11 67
-9 205 3 270 45 235 197 442 404 550 94 48 204 80 695 200 209 52 385 99 390
105 7 8 9 684 8 1991 -1 1088 -2 1986 -2 1994 -1 13 -448 15 -3961 15 l-3960
0 0 -2002z m2230 1388 c264 -50 478 -140 679 -283 113 -81 279 -250 363 -368
252 -357 350 -828 258 -1240 -6 -25 -12 -54 -14 -65 -3 -11 -15 -51 -27 -90
-13 -38 -23 -72 -24 -75 -7 -22 -24 -60 -71 -155 -163 -329 -448 -597 -793
-746 -79 -34 -224 -81 -292 -94 -64 -13 -77 -16 -124 -22 -101 -15 -455 -6
-485 12 -3 2 -23 6 -45 9 -47 8 -194 51 -245 73 -347 147 -574 333 -765 626
-111 172 -204 414 -230 602 -3 28 -9 66 -12 85 -10 66 -6 315 7 390 17 104 16
99 35 176 105 418 412 801 805 1003 171 87 371 151 530 168 30 3 56 7 58 8 10
8 336 -4 392 -14z m3965 -1 c39 -7 112 -23 163 -37 397 -103 769 -395 966
-757 137 -252 199 -493 200 -781 1 -464 -214 -915 -579 -1215 -204 -167 -476
-291 -736 -336 -112 -20 -362 -25 -479 -11 -234 28 -529 148 -728 296 -154
115 -340 320 -421 464 -12 20 -31 54 -42 74 -56 100 -131 313 -154 443 -4 19
-9 46 -12 60 -10 52 -12 407 -2 465 69 415 269 757 594 1017 211 169 514 295
775 324 30 4 56 8 58 9 10 8 337 -4 397 -15z m-2150 -2379 c22 -10 225 -158
450 -328 356 -268 413 -314 433 -353 44 -88 20 -170 -108 -370 -6 -8 -13 -22
-17 -30 -4 -8 -81 -143 -172 -300 -90 -157 -175 -305 -188 -330 -13 -25 -93
-164 -176 -309 -179 -310 -190 -323 -297 -329 -63 -4 -72 -2 -113 26 -24 17
-58 53 -74 79 -27 42 -231 399 -309 538 -15 28 -88 156 -162 285 -74 129 -144
251 -155 270 -11 19 -45 79 -76 133 -112 196 -122 226 -101 300 6 24 26 60 43
79 39 42 771 592 840 631 60 32 123 35 182 8z"/>
<path d="M3977 9084 c-1 -1 -33 -4 -72 -7 -393 -31 -773 -300 -950 -673 -81
-171 -114 -326 -109 -524 4 -208 41 -359 131 -533 176 -341 496 -566 898 -632
44 -7 242 -7 305 0 142 17 324 80 459 161 103 61 132 84 231 184 183 185 306
429 338 670 9 69 9 226 -1 305 -31 272 -143 502 -339 698 -227 226 -492 341
-811 351 -42 1 -78 1 -80 0z m179 -609 c307 -71 506 -364 460 -677 -25 -171
-159 -353 -318 -431 -95 -47 -181 -65 -299 -61 -435 15 -703 500 -486 883 126
221 399 343 643 286z"/>
<path d="M3993 8090 c-49 -11 -95 -42 -126 -87 -24 -33 -30 -52 -31 -99 -2
-116 71 -195 187 -201 76 -5 126 20 172 85 26 37 30 53 30 105 0 71 -24 120
-79 162 -38 29 -107 44 -153 35z"/>
<path d="M7927 9085 c-1 -2 -33 -5 -72 -9 -75 -7 -216 -41 -303 -74 -139 -54
-282 -150 -407 -277 -167 -168 -267 -356 -321 -600 -21 -94 -23 -323 -5 -425
92 -502 467 -881 965 -975 78 -14 335 -23 354 -11 4 2 28 7 54 10 221 30 487
172 658 353 168 177 268 377 314 622 13 74 15 312 2 376 -4 17 -11 55 -17 85
-6 30 -22 87 -36 125 -163 466 -594 783 -1083 798 -55 2 -101 3 -103 2z m207
-615 c201 -51 350 -190 419 -389 24 -70 29 -101 30 -180 1 -167 -53 -300 -168
-417 -124 -126 -247 -177 -425 -178 -84 0 -120 5 -178 24 -174 55 -322 200
-382 373 -34 97 -38 241 -11 342 64 233 233 386 486 439 52 10 159 4 229 -14z"/>
<path d="M7947 8088 c-128 -28 -191 -181 -122 -294 86 -138 287 -121 350 28
60 145 -73 301 -228 266z"/>
<path d="M5983 6637 c-15 -12 -29 -25 -31 -29 -2 -5 -8 -8 -13 -8 -10 0 -142
-101 -147 -112 -2 -5 -10 -8 -17 -8 -7 0 -15 -3 -17 -7 -1 -5 -65 -55 -140
-111 -76 -57 -138 -105 -138 -107 0 -1 47 -84 104 -184 57 -99 107 -187 110
-194 4 -6 21 -37 39 -68 17 -30 86 -150 152 -267 66 -116 122 -212 125 -212 3
0 28 39 55 87 28 48 55 95 60 105 6 9 20 34 31 55 12 21 103 181 203 356 100
175 179 322 175 328 -3 5 -76 62 -162 127 -87 64 -161 120 -167 125 -5 4 -51
39 -102 77 l-92 69 -28 -22z"/>
<path d="M2050 3115 l0 -2545 83 -1 c205 -1 330 0 333 4 4 4 19 85 29 157 2
14 6 39 8 55 7 40 50 317 82 530 14 94 28 177 30 185 2 8 7 40 11 70 7 62 10
78 19 135 3 22 15 96 26 165 11 69 26 166 34 215 8 50 17 110 20 135 3 25 7
52 9 60 1 8 6 38 10 65 4 28 10 61 12 75 5 28 12 73 19 126 3 21 7 46 10 58 2
12 7 39 10 61 3 22 7 54 10 70 3 17 7 46 10 65 2 19 7 46 9 60 3 14 7 43 11
65 3 22 14 94 25 160 10 66 21 140 25 165 3 25 10 70 15 100 5 30 12 71 14 90
2 19 9 64 15 100 6 36 13 83 16 105 3 22 8 51 10 65 7 40 14 81 24 150 5 36
17 112 26 170 9 58 20 130 25 160 5 30 16 102 25 160 9 58 18 116 20 130 2 14
15 97 29 185 13 88 27 178 30 200 4 23 9 52 12 65 15 74 16 199 0 251 -29 101
-114 202 -211 251 -16 9 -61 23 -100 32 -96 23 -86 20 -225 56 -69 17 -132 33
-140 35 -8 2 -44 11 -80 20 -36 9 -72 18 -80 20 -8 2 -35 8 -60 15 -25 7 -56
14 -70 17 -14 2 -47 11 -74 19 -27 7 -51 14 -53 14 -2 0 -3 -1145 -3 -2545z"/>
<path d="M9685 5589 c-148 -38 -279 -70 -290 -73 -98 -21 -270 -69 -310 -87
-29 -13 -76 -48 -111 -83 -110 -111 -130 -210 -89 -466 2 -14 8 -59 15 -100 6
-41 13 -86 15 -100 5 -32 23 -143 30 -195 4 -22 8 -51 10 -65 3 -14 14 -89 25
-165 11 -77 25 -165 30 -195 5 -30 12 -75 15 -100 4 -25 13 -88 21 -140 9 -52
17 -111 20 -130 2 -19 6 -46 9 -60 4 -23 8 -43 20 -120 2 -14 7 -45 10 -70 8
-56 14 -98 20 -130 2 -14 7 -45 10 -70 3 -25 8 -52 10 -60 2 -8 7 -40 10 -70
4 -30 8 -57 10 -60 2 -3 6 -34 10 -70 4 -36 8 -67 10 -70 2 -3 6 -27 9 -55 4
-27 9 -57 11 -65 2 -8 6 -37 10 -65 3 -27 10 -75 15 -105 5 -30 19 -116 29
-190 11 -74 23 -153 26 -175 4 -22 8 -53 11 -70 2 -16 6 -41 9 -55 2 -14 7
-43 10 -65 3 -22 7 -47 10 -55 2 -8 7 -42 10 -75 4 -32 8 -62 10 -65 2 -3 6
-27 9 -55 3 -27 8 -59 10 -71 2 -12 7 -45 11 -75 4 -30 9 -57 11 -60 1 -3 6
-30 9 -60 3 -30 10 -79 15 -109 5 -30 12 -73 15 -95 4 -22 11 -69 16 -105 12
-73 12 -72 29 -190 6 -47 16 -106 20 -132 5 -26 12 -69 15 -95 4 -26 10 -73
16 -103 5 -30 12 -75 15 -100 3 -25 8 -47 10 -49 5 -6 415 -3 421 3 5 4 8
5006 4 5074 -1 15 31 22 -286 -59z"/>
<path d="M3772 1346 c-44 -15 -97 -59 -118 -98 -15 -29 -17 -69 -19 -355 l-1
-323 50 -1 c51 -1 466 0 518 0 l28 1 2 197 3 196 185 0 c102 -1 190 -2 195 -2
7 -1 10 -71 10 -196 l0 -195 22 -1 c30 0 504 0 544 0 l30 1 -3 323 c-3 292 -5
325 -22 356 -20 38 -45 63 -91 89 -27 15 -84 17 -665 18 -443 1 -645 -2 -668
-10z"/>
<path d="M6935 1343 c-45 -15 -89 -54 -113 -98 -14 -26 -16 -76 -17 -352 -1
-223 2 -323 9 -324 16 0 527 -1 558 0 l27 1 0 178 c0 97 0 186 0 197 1 19 8
20 191 19 104 0 193 -4 197 -8 4 -4 7 -93 8 -197 l0 -190 245 0 c135 0 269 0
298 0 l52 1 0 303 c0 166 -4 317 -10 336 -14 51 -50 97 -95 123 l-40 23 -635
1 c-516 1 -642 -1 -675 -13z"/>
</g>
</svg>
